<?xml version="1.0" encoding="utf-8"?>
<!-- Generator: Adobe Illustrator 19.2.0, SVG Export Plug-In . SVG Version: 6.00 Build 0)  -->
<svg version="1.1" id="Calque_1" xmlns="http://www.w3.org/2000/svg" xmlns:xlink="http://www.w3.org/1999/xlink" x="0px" y="0px"
	 viewBox="0 0 75 75" style="enable-background:new 0 0 75 75;" xml:space="preserve">
<style type="text/css">
	.st0{fill:#B682DB;}
	.st1{clip-path:url(#SVGID_2_);fill:#FFFFFF;}
	.st2{clip-path:url(#SVGID_4_);fill:#FFFFFF;}
	.st3{clip-path:url(#SVGID_6_);fill:#FFFFFF;}
</style>
<title>ico_liv_v</title>
<path class="st0" d="M37.5,0C23.8,0,12.7,11.1,12.7,24.8c0,5.5,3.5,14.5,10.8,27.5c5.1,9.2,10.1,16.8,10.4,17.1l3.7,5.6l3.7-5.6
	c0.2-0.3,5.3-8,10.4-17.1c7.2-13,10.8-22,10.8-27.5C62.3,11.1,51.2,0,37.5,0z"/>
<g>
	<g>
		<defs>
			<rect id="SVGID_1_" x="18.5" y="19.8" width="18.1" height="14.8"/>
		</defs>
		<clipPath id="SVGID_2_">
			<use xlink:href="#SVGID_1_"  style="overflow:visible;"/>
		</clipPath>
		<path class="st1" d="M36.6,26.5l-1.8-3.9l-6.9-2.8l-7.5,2.8l-1.9,2.8l1.9-0.2v6.4l7.2,2.9l7.2-2.9v-4.4L36.6,26.5z M27.9,25.3v-5
			l6.2,2.5L27.9,25.3z M27.3,33.8l-6.4-2.5v-7.9l6.4,2.5V33.8z M34.3,31.3l-6.4,2.5v-7.9l1.4,3.7l5-2.2V31.3L34.3,31.3z"/>
	</g>
	<g>
		<defs>
			<rect id="SVGID_3_" x="38.5" y="20" width="18.1" height="14.8"/>
		</defs>
		<clipPath id="SVGID_4_">
			<use xlink:href="#SVGID_3_"  style="overflow:visible;"/>
		</clipPath>
		<path class="st2" d="M56.6,26.7l-1.8-3.9L47.9,20l-7.5,2.8l-1.9,2.8l1.9-0.2v6.4l7.2,2.9l7.2-2.9v-4.4L56.6,26.7z M47.9,25.6v-5
			l6.2,2.5L47.9,25.6z M47.3,34.1l-6.4-2.5v-7.9l6.4,2.5V34.1z M54.3,31.5l-6.4,2.5v-7.9l1.4,3.7l5-2.2V31.5L54.3,31.5z"/>
	</g>
</g>
<g>
	<defs>
		<rect id="SVGID_5_" x="28.4" y="5" width="18.1" height="14.8"/>
	</defs>
	<clipPath id="SVGID_6_">
		<use xlink:href="#SVGID_5_"  style="overflow:visible;"/>
	</clipPath>
	<path class="st3" d="M46.5,11.7l-1.8-3.9L37.8,5l-7.5,2.8l-1.9,2.8l1.9-0.2v6.4l7.2,2.9l7.2-2.9v-4.4L46.5,11.7z M37.8,10.6v-5
		L44,8.1L37.8,10.6z M37.3,19.1l-6.4-2.5V8.6l6.4,2.5V19.1z M44.2,16.5l-6.4,2.5v-7.9l1.4,3.7l5-2.2V16.5L44.2,16.5z"/>
</g>
</svg>
