<?xml version="1.0" encoding="utf-8"?>
<!-- Generator: Adobe Illustrator 20.0.0, SVG Export Plug-In . SVG Version: 6.00 Build 0)  -->
<svg version="1.1" id="Calque_1" xmlns="http://www.w3.org/2000/svg" xmlns:xlink="http://www.w3.org/1999/xlink" x="0px" y="0px"
	 viewBox="0 0 250 250" style="enable-background:new 0 0 250 250;" xml:space="preserve">
<style type="text/css">
	.st0{fill:#FFFFFF;}
	
		.st1{fill-rule:evenodd;clip-rule:evenodd;fill:none;stroke:#000000;stroke-width:4;stroke-linecap:round;stroke-linejoin:round;stroke-miterlimit:2.6131;}
	.st2{fill:none;}
	.st3{font-family:'AndaleMono';}
	.st4{font-size:29px;}
</style>
<g>
	<path class="st0" d="M227.4,156.6c-0.1-0.8-0.1-1.8-0.2-2.9c-0.4-2.8-0.9-5.6-1.3-8.4c-1-6.4-2-12.9-3-19.3c-1-6.4-2-12.7-3-19.1
		c-1-6.4-2-12.9-3-19.3c-1.1-6.9-2.2-13.8-3.2-20.6c-0.9-6-3.7-10.7-8.8-14c-2.1-1.4-4.6-2.3-7-3.2c-26.4-10.2-52.8-20.4-79.3-30.5
		c-6.9-2.7-13.5-1.6-19.3,3c-6.3,4.9-12.4,10-18.7,15C63.7,50.8,46.9,64.4,30.1,78c-4.6,3.7-7.1,8.7-7,14.7c0,3.4,0.7,6.7,1.2,10.1
		c1.2,8.2,2.5,16.4,3.8,24.5c1.3,8.1,2.6,16.3,3.9,24.4c1.7,10.6,3.3,21.3,5,31.9c1.2,7.4,5.5,12.6,12.4,15.3
		c27.1,10.5,54.3,20.9,81.4,31.4c2.3,0.9,4.7,1.6,7.3,1.7c4.7,0.2,9.1-1.1,12.8-4.1c4.9-3.9,9.8-7.9,14.7-11.8
		c17.8-14.4,35.6-28.9,53.5-43.2C224.3,168.8,227.3,163.6,227.4,156.6z M102.1,235.9c0-0.1,0-0.1,0-0.2c-18.1-7-36.2-13.9-54.3-20.9
		c1.5,3.2,3.1,6.3,4.8,9.2c3.5,5.8,8.6,9.6,15.2,10.7c3.5,0.6,7.1,0.5,10.7,0.6c2,0.1,4,0,5.9,0.1
		C90.4,235.7,96.2,235.8,102.1,235.9z M40.8,49.3c0.1,0.1,0.1,0.1,0.2,0.2c15-12.1,29.9-24.2,45-36.4c-0.3-0.1-0.4-0.2-0.5-0.2
		c-4.1,0-8.2-0.4-12.3,0.1c-7.5,0.8-13.3,4.7-17.2,11.2c-2.8,4.5-5.5,9.1-8.2,13.6C45.4,41.6,43.1,45.5,40.8,49.3z M209.2,200.9
		c-0.1,0-0.1-0.1-0.2-0.1c-14.9,12-29.8,24.1-44.7,36.1c0,0.1,0.1,0.2,0.1,0.3c1.8,0,3.7,0,5.5,0c2.6,0,5.2,0.2,7.8-0.2
		c7-1.1,12.5-4.7,16.2-10.8c4.2-6.9,8.3-13.8,12.5-20.7C207.4,204,208.3,202.5,209.2,200.9z M202.6,35.1c-1.7-3.1-3.2-6-4.9-8.9
		c-4.2-7-10.4-10.8-18.5-11.5c-3-0.3-6.1-0.2-9.2-0.2c-6.1-0.1-12.2-0.2-18.3-0.2c-1.1,0-2.2-0.1-3.4-0.2c0,0,0,0.1,0,0.1
		C166.3,21.1,184.3,28.1,202.6,35.1z M241.6,146.8c0.1,0,0.2,0,0.2,0c1.8-2.9,3.6-5.9,5.3-8.8c1.9-3.4,2.9-7.1,2.9-11
		c0-4-1-7.8-3-11.3c-3.3-5.9-6.6-11.9-9.9-17.9c-1.4-2.6-2.9-5.2-4.3-7.8c0,0-0.1,0-0.1,0.1C235.7,109,238.7,127.9,241.6,146.8z"/>
	<path d="M0,122.4c0.2-1.2,0.4-2.4,0.6-3.7c0.6-3,1.8-5.8,3.4-8.3c1.4-2.2,2.7-4.5,4-6.7c0.2-0.3,0.4-0.5,0.7-1
		c3.1,19.5,6.1,38.7,9.1,58c0,0-0.1,0-0.1,0.1c-0.7-1.2-1.3-2.3-2-3.5c-4.1-7.4-8.1-14.8-12.2-22.2c-1.8-3.3-3.1-6.7-3.3-10.5
		c0-0.3-0.2-0.6-0.3-0.9C0,123.2,0,122.8,0,122.4z"/>
	<path d="M227.4,156.6c-0.1,7-3.1,12.2-8.3,16.4c-17.9,14.4-35.6,28.8-53.5,43.2c-4.9,4-9.7,7.9-14.7,11.8
		c-3.7,2.9-8.1,4.2-12.8,4.1c-2.5-0.1-4.9-0.8-7.3-1.7c-27.1-10.5-54.3-20.9-81.4-31.4c-6.9-2.7-11.2-7.9-12.4-15.3
		c-1.8-10.6-3.4-21.3-5-31.9c-1.3-8.1-2.6-16.3-3.9-24.4c-1.3-8.2-2.6-16.4-3.8-24.5c-0.5-3.4-1.1-6.7-1.2-10.1
		c-0.1-6,2.4-11,7-14.7c16.8-13.7,33.6-27.2,50.5-40.8c6.2-5,12.4-10.1,18.7-15c5.8-4.6,12.4-5.6,19.3-3
		c26.5,10.1,52.9,20.3,79.3,30.5c2.4,0.9,4.8,1.9,7,3.2c5,3.3,7.9,8,8.8,14c1,6.9,2.2,13.8,3.2,20.6c1,6.4,2,12.9,3,19.3
		c1,6.4,2,12.7,3,19.1c1,6.4,2,12.9,3,19.3c0.4,2.8,0.9,5.6,1.3,8.4C227.4,154.8,227.4,155.8,227.4,156.6z M137.8,231.3
		c5.1,0.1,9.2-1.4,12.8-4.2c9.5-7.6,19-15.3,28.4-23c11.5-9.3,23-18.6,34.5-27.9c2.6-2.1,5.3-4.1,7.5-6.6c3.7-4.2,5.2-9.2,4.4-14.8
		c-0.5-3.7-1.1-7.3-1.7-11c-1-6.5-2-13.1-3.1-19.6c-0.8-4.9-1.6-9.9-2.3-14.8c-1-6.5-2-12.9-3-19.4c-1-6.4-2.1-12.9-3-19.3
		c-0.5-3.5-1.2-7-3.2-10c-2.7-4.2-6.6-6.8-11.2-8.6c-26.5-10.1-53-20.4-79.5-30.6c-2.3-0.9-4.8-1.4-7.2-1.3
		c-4.5,0.1-8.6,1.4-12.1,4.3C88.9,32.7,78.7,41,68.5,49.3C56,59.3,43.5,69.3,31.1,79.5C25.7,84,23.5,90,24.3,97.1
		c0.3,2.3,0.7,4.7,1.1,7c1,6.5,2,12.9,3,19.4c1,6.3,2,12.7,3,19c1,6.4,2,12.9,3,19.3c1.1,6.8,2.2,13.6,3.2,20.4
		c1.2,8.3,5.6,13.9,13.4,17c26.5,10.2,52.9,20.4,79.4,30.6C132.9,230.7,135.5,231.4,137.8,231.3z"/>
	<path d="M102.1,235.9c-5.9-0.1-11.7-0.3-17.6-0.4c-2,0-4,0-5.9-0.1c-3.6-0.2-7.2,0-10.7-0.6c-6.7-1.2-11.8-4.9-15.2-10.7
		c-1.8-2.9-3.3-6-4.8-9.2c18.1,7,36.2,13.9,54.3,20.9C102.1,235.8,102.1,235.9,102.1,235.9z"/>
	<path d="M40.8,49.3c2.3-3.8,4.6-7.7,6.9-11.5c2.7-4.5,5.5-9.1,8.2-13.6c3.9-6.5,9.7-10.4,17.2-11.2c4-0.4,8.2-0.1,12.3-0.1
		c0.1,0,0.2,0.1,0.5,0.2C70.9,25.3,56,37.4,41,49.5C40.9,49.4,40.9,49.4,40.8,49.3z"/>
	<path d="M209.2,200.9c-0.9,1.5-1.8,3.1-2.7,4.6c-4.2,6.9-8.3,13.8-12.5,20.7c-3.7,6.1-9.2,9.8-16.2,10.8c-2.5,0.4-5.2,0.1-7.8,0.2
		c-1.8,0-3.7,0-5.5,0c0-0.1-0.1-0.2-0.1-0.3c14.9-12,29.8-24.1,44.7-36.1C209.1,200.8,209.1,200.9,209.2,200.9z"/>
	<path d="M202.6,35.1c-18.2-7-36.3-14-54.3-20.9c0,0,0-0.1,0-0.1c1.1,0.1,2.2,0.2,3.4,0.2c6.1,0.1,12.2,0.2,18.3,0.2
		c3.1,0,6.1,0,9.2,0.2c8.1,0.7,14.3,4.5,18.5,11.5C199.3,29.1,200.8,32,202.6,35.1z"/>
	<path d="M241.6,146.8c-3-18.9-6-37.8-8.9-56.7c0,0,0.1,0,0.1-0.1c1.4,2.6,2.9,5.2,4.3,7.8c3.3,6,6.5,11.9,9.9,17.9
		c2,3.5,3,7.3,3,11.3c0,3.9-0.9,7.6-2.9,11c-1.7,3-3.5,5.9-5.3,8.8C241.8,146.8,241.7,146.8,241.6,146.8z"/>
	<path class="st0" d="M137.8,231.3c-2.3,0.1-4.9-0.6-7.5-1.6c-26.5-10.2-52.9-20.4-79.4-30.6c-7.8-3-12.2-8.7-13.4-17
		c-1-6.8-2.2-13.6-3.2-20.4c-1-6.4-2-12.9-3-19.3c-1-6.3-2-12.7-3-19c-1-6.5-2-12.9-3-19.4c-0.4-2.3-0.8-4.6-1.1-7
		C23.5,90,25.7,84,31.1,79.5C43.5,69.3,56,59.3,68.5,49.3C78.7,41,88.9,32.7,99.1,24.5c3.5-2.9,7.6-4.2,12.1-4.3
		c2.5,0,4.9,0.4,7.2,1.3c26.5,10.2,53,20.4,79.5,30.6c4.6,1.8,8.5,4.4,11.2,8.6c2,3.1,2.7,6.5,3.2,10c1,6.4,2,12.9,3,19.3
		c1,6.5,2,12.9,3,19.4c0.8,4.9,1.6,9.9,2.3,14.8c1,6.5,2.1,13.1,3.1,19.6c0.6,3.7,1.2,7.3,1.7,11c0.7,5.6-0.8,10.6-4.4,14.8
		c-2.2,2.5-4.9,4.5-7.5,6.6c-11.5,9.3-23,18.6-34.5,27.9c-9.5,7.7-18.9,15.4-28.4,23C147,230,142.9,231.4,137.8,231.3z"/>
</g>
<g>
	<path class="st1" d="M59.4,106h12.1c10.4,0,19,8.5,19,19l0,0c0,10.4-8.5,19-19,19H59.4V106z"/>
	<path class="st1" d="M105.1,106.1v37.8 M138.8,106.1v37.8 M138.8,106.1l-21.2,21.2 M105.1,106.1l21.2,21.2"/>
	<path class="st1" d="M162.6,105.9h24.7 M181.1,125h-18.5 M156.4,144.1h24.7c5.3,0,9.5-4.3,9.5-9.5s-4.3-9.5-9.5-9.5 M181.1,125
		h-18.5c-5.3,0-9.5-4.3-9.5-9.5c0-5.3,4.3-9.5,9.5-9.5"/>
</g>
<rect x="59.4" y="162.7" class="st2" width="131.3" height="38"/>
<text transform="matrix(1 0 0 1 81.4932 182.6465)" class="st3 st4">1.0.0</text>
</svg>
